<svg id="visual" viewBox="0 0 900 600" width="900" height="600" xmlns="http://www.w3.org/2000/svg" xmlns:xlink="http://www.w3.org/1999/xlink" version="1.1"><rect x="0" y="0" width="900" height="600" fill="#000000"></rect><defs><linearGradient id="grad1_0" x1="33.3%" y1="0%" x2="100%" y2="100%"><stop offset="20%" stop-color="#000000" stop-opacity="1"></stop><stop offset="80%" stop-color="#000000" stop-opacity="1"></stop></linearGradient></defs><defs><linearGradient id="grad2_0" x1="0%" y1="0%" x2="66.7%" y2="100%"><stop offset="20%" stop-color="#000000" stop-opacity="1"></stop><stop offset="80%" stop-color="#000000" stop-opacity="1"></stop></linearGradient></defs><g transform="translate(900, 0)"><path d="M0 297.5C-23.3 292.6 -46.6 287.8 -61.2 268.1C-75.8 248.4 -81.6 213.9 -98.1 203.6C-114.5 193.4 -141.7 207.5 -167.1 209.5C-192.5 211.6 -216.2 201.7 -232.6 185.5C-248.9 169.3 -258.1 146.8 -257.7 124.1C-257.3 101.4 -247.5 78.4 -252.5 57.6C-257.6 36.9 -277.5 18.5 -297.5 0L0 0Z" fill="#FBAE3C"></path></g><g transform="translate(0, 600)"><path d="M0 -297.5C15.5 -267.7 31.1 -238 54.5 -238.9C78 -239.7 109.4 -271.1 129.1 -268C148.7 -264.9 156.7 -227.1 158.4 -198.6C160 -170 155.3 -150.6 180.6 -144C205.9 -137.4 261.1 -143.7 266.7 -128.4C272.3 -113.2 228.3 -76.4 225.2 -51.4C222.1 -26.4 259.8 -13.2 297.5 0L0 0Z" fill="#FBAE3C"></path></g></svg>