<svg id="visual" viewBox="0 0 900 600" width="900" height="600" xmlns="http://www.w3.org/2000/svg" xmlns:xlink="http://www.w3.org/1999/xlink" version="1.1"><g stroke-width="1" stroke-linejoin="bevel"><path d="M460 285.1L419 319.9L482 316.9Z" fill="#1a1a1a" stroke="#d53535"></path><path d="M482 316.9L521 311.1L460 285.1Z" fill="#000000" stroke="#d53535"></path><path d="M460 285.1L385 287.9L419 319.9Z" fill="#000000" stroke="#d53535"></path><path d="M385 287.9L347 307.1L419 319.9Z" fill="#080808" stroke="#d53535"></path><path d="M347 307.1L420 414.6L419 319.9Z" fill="#222222" stroke="#d53535"></path><path d="M419 319.9L420 414.6L482 316.9Z" fill="#303030" stroke="#d53535"></path><path d="M482 316.9L509 421.6L521 311.1Z" fill="#222222" stroke="#d53535"></path><path d="M420 414.6L509 421.6L482 316.9Z" fill="#151515" stroke="#d53535"></path><path d="M575 404.6L581 296.1L521 311.1Z" fill="#080808" stroke="#d53535"></path><path d="M521 311.1L505 173.4L460 285.1Z" fill="#353535" stroke="#d53535"></path><path d="M581 296.1L505 173.4L521 311.1Z" fill="#151515" stroke="#d53535"></path><path d="M460 285.1L370 160.4L385 287.9Z" fill="#151515" stroke="#d53535"></path><path d="M385 287.9L288 222.4L347 307.1Z" fill="#101010" stroke="#d53535"></path><path d="M509 421.6L575 404.6L521 311.1Z" fill="#353535" stroke="#d53535"></path><path d="M575 404.6L609 385.9L581 296.1Z" fill="#303030" stroke="#d53535"></path><path d="M505 173.4L370 160.4L460 285.1Z" fill="#080808" stroke="#d53535"></path><path d="M581 296.1L534 153.4L505 173.4Z" fill="#151515" stroke="#d53535"></path><path d="M505 173.4L390 59.7L370 160.4Z" fill="#1e1e1e" stroke="#d53535"></path><path d="M370 160.4L288 222.4L385 287.9Z" fill="#151515" stroke="#d53535"></path><path d="M323 489.3L474 518.3L420 414.6Z" fill="#1a1a1a" stroke="#d53535"></path><path d="M323 489.3L420 414.6L239 381.6Z" fill="#151515" stroke="#d53535"></path><path d="M420 414.6L474 518.3L509 421.6Z" fill="#222222" stroke="#d53535"></path><path d="M625 490.3L636 455.6L575 404.6Z" fill="#151515" stroke="#d53535"></path><path d="M575 404.6L636 455.6L609 385.9Z" fill="#1e1e1e" stroke="#d53535"></path><path d="M670 177.4L535 122.7L534 153.4Z" fill="#303030" stroke="#d53535"></path><path d="M534 153.4L535 122.7L505 173.4Z" fill="#080808" stroke="#d53535"></path><path d="M670 177.4L534 153.4L581 296.1Z" fill="#1e1e1e" stroke="#d53535"></path><path d="M288 222.4L237 335.9L347 307.1Z" fill="#272727" stroke="#d53535"></path><path d="M239 381.6L420 414.6L347 307.1Z" fill="#1a1a1a" stroke="#d53535"></path><path d="M237 335.9L239 381.6L347 307.1Z" fill="#222222" stroke="#d53535"></path><path d="M625 490.3L575 404.6L509 421.6Z" fill="#353535" stroke="#d53535"></path><path d="M711 304.9L670 177.4L581 296.1Z" fill="#151515" stroke="#d53535"></path><path d="M288 222.4L210 303.1L237 335.9Z" fill="#1a1a1a" stroke="#d53535"></path><path d="M237 335.9L195 390.9L239 381.6Z" fill="#1e1e1e" stroke="#d53535"></path><path d="M239 381.6L252 456.3L323 489.3Z" fill="#222222" stroke="#d53535"></path><path d="M195 390.9L252 456.3L239 381.6Z" fill="#353535" stroke="#d53535"></path><path d="M572 556.3L625 490.3L509 421.6Z" fill="#2c2c2c" stroke="#d53535"></path><path d="M288 222.4L214 212.1L210 303.1Z" fill="#272727" stroke="#d53535"></path><path d="M227 100.7L214 212.1L288 222.4Z" fill="#2c2c2c" stroke="#d53535"></path><path d="M711 304.9L581 296.1L609 385.9Z" fill="#000000" stroke="#d53535"></path><path d="M750 389.6L711 304.9L609 385.9Z" fill="#000000" stroke="#d53535"></path><path d="M724 289.1L711 304.9L750 389.6Z" fill="#080808" stroke="#d53535"></path><path d="M419 0L390 59.7L535 122.7Z" fill="#222222" stroke="#d53535"></path><path d="M535 122.7L390 59.7L505 173.4Z" fill="#353535" stroke="#d53535"></path><path d="M370 160.4L333 77.7L288 222.4Z" fill="#222222" stroke="#d53535"></path><path d="M390 59.7L333 77.7L370 160.4Z" fill="#151515" stroke="#d53535"></path><path d="M161 400.6L195 390.9L108 353.9Z" fill="#303030" stroke="#d53535"></path><path d="M210 303.1L195 390.9L237 335.9Z" fill="#222222" stroke="#d53535"></path><path d="M474 518.3L572 556.3L509 421.6Z" fill="#303030" stroke="#d53535"></path><path d="M520 600L572 556.3L474 518.3Z" fill="#1e1e1e" stroke="#d53535"></path><path d="M711 304.9L724 289.1L670 177.4Z" fill="#1e1e1e" stroke="#d53535"></path><path d="M750 389.6L609 385.9L636 455.6Z" fill="#1e1e1e" stroke="#d53535"></path><path d="M724 289.1L687 158.4L670 177.4Z" fill="#101010" stroke="#d53535"></path><path d="M670 177.4L666 64.7L535 122.7Z" fill="#151515" stroke="#d53535"></path><path d="M399 600L474 518.3L323 489.3Z" fill="#080808" stroke="#d53535"></path><path d="M399 600L425 600L474 518.3Z" fill="#272727" stroke="#d53535"></path><path d="M311 600L399 600L323 489.3Z" fill="#101010" stroke="#d53535"></path><path d="M425 600L520 600L474 518.3Z" fill="#101010" stroke="#d53535"></path><path d="M108 353.9L195 390.9L210 303.1Z" fill="#222222" stroke="#d53535"></path><path d="M195 390.9L161 400.6L252 456.3Z" fill="#101010" stroke="#d53535"></path><path d="M205 600L311 600L323 489.3Z" fill="#303030" stroke="#d53535"></path><path d="M770 547.3L636 455.6L625 490.3Z" fill="#1a1a1a" stroke="#d53535"></path><path d="M770 547.3L750 389.6L636 455.6Z" fill="#303030" stroke="#d53535"></path><path d="M307 24.7L227 100.7L333 77.7Z" fill="#080808" stroke="#d53535"></path><path d="M333 77.7L227 100.7L288 222.4Z" fill="#000000" stroke="#d53535"></path><path d="M59 305.1L108 353.9L210 303.1Z" fill="#000000" stroke="#d53535"></path><path d="M581 0L419 0L535 122.7Z" fill="#1a1a1a" stroke="#d53535"></path><path d="M390 59.7L307 24.7L333 77.7Z" fill="#101010" stroke="#d53535"></path><path d="M205 600L323 489.3L252 456.3Z" fill="#151515" stroke="#d53535"></path><path d="M419 0L404 0L390 59.7Z" fill="#222222" stroke="#d53535"></path><path d="M404 0L307 24.7L390 59.7Z" fill="#2c2c2c" stroke="#d53535"></path><path d="M699 60.7L666 64.7L687 158.4Z" fill="#080808" stroke="#d53535"></path><path d="M687 158.4L666 64.7L670 177.4Z" fill="#151515" stroke="#d53535"></path><path d="M699 60.7L687 158.4L772 80.7Z" fill="#222222" stroke="#d53535"></path><path d="M666 64.7L581 0L535 122.7Z" fill="#2c2c2c" stroke="#d53535"></path><path d="M59 305.1L210 303.1L214 212.1Z" fill="#272727" stroke="#d53535"></path><path d="M138 567.3L205 600L252 456.3Z" fill="#272727" stroke="#d53535"></path><path d="M129 116.4L149 127.4L132 109.7Z" fill="#272727" stroke="#d53535"></path><path d="M227 100.7L149 127.4L214 212.1Z" fill="#101010" stroke="#d53535"></path><path d="M860 221.4L687 158.4L724 289.1Z" fill="#1e1e1e" stroke="#d53535"></path><path d="M666 64.7L688 0L581 0Z" fill="#353535" stroke="#d53535"></path><path d="M520 600L667 600L572 556.3Z" fill="#080808" stroke="#d53535"></path><path d="M572 556.3L667 600L625 490.3Z" fill="#101010" stroke="#d53535"></path><path d="M404 0L251 0L307 24.7Z" fill="#222222" stroke="#d53535"></path><path d="M307 24.7L251 0L227 100.7Z" fill="#1e1e1e" stroke="#d53535"></path><path d="M103 462.6L252 456.3L161 400.6Z" fill="#353535" stroke="#d53535"></path><path d="M108 353.9L103 462.6L161 400.6Z" fill="#1e1e1e" stroke="#d53535"></path><path d="M132 109.7L149 127.4L227 100.7Z" fill="#272727" stroke="#d53535"></path><path d="M149 127.4L59 305.1L214 212.1Z" fill="#2c2c2c" stroke="#d53535"></path><path d="M124 0L132 109.7L227 100.7Z" fill="#101010" stroke="#d53535"></path><path d="M822 413.6L831 298.1L750 389.6Z" fill="#272727" stroke="#d53535"></path><path d="M750 389.6L831 298.1L724 289.1Z" fill="#272727" stroke="#d53535"></path><path d="M770 547.3L822 413.6L750 389.6Z" fill="#272727" stroke="#d53535"></path><path d="M0 229.1L59 305.1L0 200.4Z" fill="#1a1a1a" stroke="#d53535"></path><path d="M0 406.6L32 488.3L103 462.6Z" fill="#222222" stroke="#d53535"></path><path d="M822 413.6L844 306.9L831 298.1Z" fill="#000000" stroke="#d53535"></path><path d="M860 221.4L772 80.7L687 158.4Z" fill="#353535" stroke="#d53535"></path><path d="M772 0L688 0L699 60.7Z" fill="#222222" stroke="#d53535"></path><path d="M699 60.7L688 0L666 64.7Z" fill="#000000" stroke="#d53535"></path><path d="M667 600L770 547.3L625 490.3Z" fill="#272727" stroke="#d53535"></path><path d="M860 221.4L724 289.1L831 298.1Z" fill="#1a1a1a" stroke="#d53535"></path><path d="M667 600L733 600L770 547.3Z" fill="#353535" stroke="#d53535"></path><path d="M103 462.6L138 567.3L252 456.3Z" fill="#000000" stroke="#d53535"></path><path d="M844 306.9L860 221.4L831 298.1Z" fill="#000000" stroke="#d53535"></path><path d="M770 547.3L846 498.3L822 413.6Z" fill="#000000" stroke="#d53535"></path><path d="M822 413.6L900 326.9L844 306.9Z" fill="#101010" stroke="#d53535"></path><path d="M844 306.9L900 298.1L860 221.4Z" fill="#1e1e1e" stroke="#d53535"></path><path d="M796 600L846 498.3L770 547.3Z" fill="#353535" stroke="#d53535"></path><path d="M733 600L796 600L770 547.3Z" fill="#303030" stroke="#d53535"></path><path d="M900 461.6L900 326.9L822 413.6Z" fill="#2c2c2c" stroke="#d53535"></path><path d="M900 326.9L900 298.1L844 306.9Z" fill="#2c2c2c" stroke="#d53535"></path><path d="M793 0L772 0L772 80.7Z" fill="#000000" stroke="#d53535"></path><path d="M772 80.7L772 0L699 60.7Z" fill="#101010" stroke="#d53535"></path><path d="M900 38.7L772 80.7L860 221.4Z" fill="#303030" stroke="#d53535"></path><path d="M32 488.3L100 600L138 567.3Z" fill="#1e1e1e" stroke="#d53535"></path><path d="M138 567.3L100 600L205 600Z" fill="#080808" stroke="#d53535"></path><path d="M32 488.3L138 567.3L103 462.6Z" fill="#151515" stroke="#d53535"></path><path d="M0 406.6L103 462.6L108 353.9Z" fill="#222222" stroke="#d53535"></path><path d="M251 0L124 0L227 100.7Z" fill="#353535" stroke="#d53535"></path><path d="M132 109.7L0 94.7L129 116.4Z" fill="#1a1a1a" stroke="#d53535"></path><path d="M0 200.4L59 305.1L149 127.4Z" fill="#353535" stroke="#d53535"></path><path d="M0 200.4L149 127.4L129 116.4Z" fill="#353535" stroke="#d53535"></path><path d="M59 305.1L0 401.9L108 353.9Z" fill="#000000" stroke="#d53535"></path><path d="M0 229.1L0 401.9L59 305.1Z" fill="#1e1e1e" stroke="#d53535"></path><path d="M0 401.9L0 406.6L108 353.9Z" fill="#222222" stroke="#d53535"></path><path d="M900 298.1L900 212.4L860 221.4Z" fill="#272727" stroke="#d53535"></path><path d="M0 94.7L0 200.4L129 116.4Z" fill="#272727" stroke="#d53535"></path><path d="M900 38.7L793 0L772 80.7Z" fill="#353535" stroke="#d53535"></path><path d="M846 498.3L900 461.6L822 413.6Z" fill="#303030" stroke="#d53535"></path><path d="M900 468.3L900 461.6L846 498.3Z" fill="#2c2c2c" stroke="#d53535"></path><path d="M900 600L900 468.3L846 498.3Z" fill="#000000" stroke="#d53535"></path><path d="M31 0L0 94.7L132 109.7Z" fill="#272727" stroke="#d53535"></path><path d="M0 406.6L0 568.3L32 488.3Z" fill="#2c2c2c" stroke="#d53535"></path><path d="M32 488.3L0 568.3L100 600Z" fill="#080808" stroke="#d53535"></path><path d="M124 0L31 0L132 109.7Z" fill="#101010" stroke="#d53535"></path><path d="M900 212.4L900 38.7L860 221.4Z" fill="#101010" stroke="#d53535"></path><path d="M796 600L900 600L846 498.3Z" fill="#272727" stroke="#d53535"></path><path d="M0 568.3L0 600L100 600Z" fill="#151515" stroke="#d53535"></path><path d="M900 38.7L900 0L793 0Z" fill="#080808" stroke="#d53535"></path><path d="M31 0L0 0L0 94.7Z" fill="#101010" stroke="#d53535"></path></g></svg>